<?xml version="1.0" standalone="no"?>
<!DOCTYPE svg PUBLIC "-//W3C//DTD SVG 1.1//EN" "http://www.w3.org/Graphics/SVG/1.1/DTD/svg11.dtd" >
<!--
2013-9-30: Created.
-->
<svg>
<metadata>
Created by iconfont
</metadata>
<defs>

<font id="hlj" horiz-adv-x="1024" >
  <font-face
    font-family="hlj"
    font-weight="500"
    font-stretch="normal"
    units-per-em="1024"
    ascent="896"
    descent="-128"
  />
    <missing-glyph />
    
    <glyph glyph-name="queue" unicode="&#59512;" d="M267.2 115.20000000000005c11.2-24 35.2-38.4 60.8-38.4h368c25.6 0 49.6 14.4 60.8 38.4 11.2 24 8 51.2-8 70.4L590.4 384l160 196.8c16 20.8 19.2 48 8 70.4-11.2 24-35.2 38.4-60.8 38.4h-368c-25.6 0-49.6-14.4-60.8-38.4-11.2-24-8-51.2 8-70.4l160-196.8-160-196.8c-17.6-20.8-20.8-48-9.6-72z m40 491.2c-6.4 8-8 19.2-3.2 28.8 4.8 9.6 14.4 16 24 16h368c11.2 0 19.2-6.4 24-16 4.8-9.6 3.2-20.8-3.2-28.8L537.6 384l92.8-113.6H395.2l92.8 113.6-180.8 222.4z m0-444.8l56 68.8h300.8l56-68.8c6.4-8 8-19.2 3.2-28.8-4.8-9.6-14.4-16-24-16h-368c-11.2 0-19.2 6.4-24 16-8 9.6-6.4 20.8 0 28.8z"  horiz-adv-x="1024" />

    
    <glyph glyph-name="shoucang" unicode="&#59223;" d="M596.8 654.4L560 616c-25.6-25.6-68.8-25.6-94.4 0l-38.4 38.4c-73.6 73.6-193.6 80-268.8 11.2-80-73.6-83.2-200-6.4-276.8l315.2-315.2c24-24 65.6-24 89.6 0L872 388.8c76.8 76.8 73.6 203.2-6.4 276.8-75.2 67.2-193.6 62.4-268.8-11.2zM552 699.2c97.6 97.6 254.4 105.6 356.8 14.4 108.8-99.2 112-267.2 9.6-369.6L601.6 28.8c-49.6-49.6-131.2-49.6-180.8 0L107.2 344C4.8 446.4 8 614.4 116.8 713.6 217.6 806.4 376 796.8 473.6 699.2l38.4-38.4c1.6-1.6 3.2-1.6 4.8 0l35.2 38.4z"  horiz-adv-x="1024" />

    
    <glyph glyph-name="yishoucang" unicode="&#59238;" d="M514.548 19.183a29.237 29.237 0 0 0-15.655 4.491c-0.242 0.122-0.485 0.364-0.85 0.485C424.619 71.126 356.29 126.59 295.245 188.97c-61.167 62.501-115.173 131.922-160.563 206.438-24.515 37.259-37.379 80.464-37.379 125.125 0 125.853 102.309 228.162 228.162 228.162 49.394 0 96.483-15.534 135.926-44.905 20.995-15.655 38.836-34.346 53.157-55.463 14.321 21.117 32.161 39.807 53.157 55.463 39.564 29.37 86.531 44.905 135.926 44.905 125.853 0 228.162-102.309 228.162-228.162 0-44.661-12.986-87.988-37.379-125.125-45.39-74.516-99.396-143.937-160.563-206.438-61.167-62.501-129.494-117.965-203.04-164.932-0.242-0.122-0.364-0.242-0.607-0.364-2.306-1.334-4.611-2.427-7.161-3.155-2.791-0.971-5.583-1.334-8.496-1.334z"  horiz-adv-x="1024" />

    
    <glyph glyph-name="denglu-kejian" unicode="&#58924;" d="M512 682.666667c204.8 0 320-119.466667 418.133333-302.933334-85.333333-196.266667-226.133333-294.4-418.133333-294.4-226.133333 0-328.533333 110.933333-418.133333 294.4C183.466667 541.866667 294.4 682.666667 512 682.666667m0 85.333333C230.4 768 93.866667 563.2 0 384c98.133333-226.133333 230.4-384 512-384s435.2 183.466667 512 384c-93.866667 187.733333-230.4 384-512 384zM512 170.666667c-119.466667 0-213.333333 93.866667-213.333333 213.333333s93.866667 213.333333 213.333333 213.333333 213.333333-93.866667 213.333333-213.333333-93.866667-213.333333-213.333333-213.333333z m0 341.333333c-72.533333 0-128-55.466667-128-128s55.466667-128 128-128 128 55.466667 128 128-55.466667 128-128 128z"  horiz-adv-x="1024" />

    
    <glyph glyph-name="denglu-bukejian" unicode="&#58926;" d="M853.333333 631.466667l115.2 102.4c17.066667 17.066667 17.066667 42.666667 4.266667 59.733333s-42.666667 17.066667-59.733333 4.266667l-123.733334-110.933334C712.533333 738.133333 622.933333 768 512 768 230.4 768 93.866667 563.2 0 384c46.933333-102.4 98.133333-192 162.133333-256l-106.666666-98.133333c-17.066667-17.066667-17.066667-42.666667-4.266667-59.733334 12.8-8.533333 21.333333-12.8 34.133333-12.8 8.533333 0 21.333333 4.266667 29.866667 12.8l119.466667 106.666667C302.933333 25.6 396.8 0 512 0c281.6 0 435.2 183.466667 512 384-46.933333 89.6-98.133333 179.2-170.666667 247.466667zM93.866667 379.733333C183.466667 541.866667 294.4 682.666667 512 682.666667c81.066667 0 149.333333-21.333333 209.066667-55.466667L640 554.666667c-34.133333 25.6-76.8 42.666667-128 42.666666-119.466667 0-213.333333-93.866667-213.333333-213.333333 0-38.4 12.8-76.8 29.866666-106.666667l-102.4-89.6c-51.2 46.933333-93.866667 115.2-132.266666 192zM640 384c0-72.533333-55.466667-128-128-128-21.333333 0-42.666667 4.266667-59.733333 17.066667l179.2 162.133333c4.266667-17.066667 8.533333-34.133333 8.533333-51.2z m-256 0c0 72.533333 55.466667 128 128 128 21.333333 0 42.666667-4.266667 59.733333-17.066667l-179.2-162.133333c-4.266667 17.066667-8.533333 34.133333-8.533333 51.2z m128-298.666667c-85.333333 0-157.866667 17.066667-213.333333 46.933334L384 213.333333c34.133333-25.6 76.8-42.666667 128-42.666666 119.466667 0 213.333333 93.866667 213.333333 213.333333 0 38.4-12.8 76.8-29.866666 106.666667l93.866666 85.333333c55.466667-51.2 98.133333-119.466667 140.8-196.266667-85.333333-196.266667-226.133333-294.4-418.133333-294.4z"  horiz-adv-x="1024" />

    
    <glyph glyph-name="caidan-shouye" unicode="&#58927;" d="M908.8 631.466667L512 896 115.2 631.466667C42.666667 584.533333 0 503.466667 0 418.133333V128c0-140.8 115.2-256 256-256h512c140.8 0 256 115.2 256 256v290.133333c0 85.333333-42.666667 166.4-115.2 213.333334zM384-42.666667v213.333334c0 72.533333 55.466667 128 128 128s128-55.466667 128-128v-213.333334H384z m554.666667 170.666667c0-93.866667-76.8-170.666667-170.666667-170.666667h-42.666667v213.333334c0 119.466667-93.866667 213.333333-213.333333 213.333333s-213.333333-93.866667-213.333333-213.333333v-213.333334H256c-93.866667 0-170.666667 76.8-170.666667 170.666667v290.133333c0 55.466667 29.866667 110.933333 76.8 140.8L512 793.6l349.866667-234.666667c46.933333-29.866667 76.8-85.333333 76.8-140.8V128z"  horiz-adv-x="1024" />

    
    <glyph glyph-name="caidan-pinpai" unicode="&#58928;" d="M1011.534933 507.733333l-98.133333 247.466667C887.8016 814.933333 832.334933 853.333333 772.6016 853.333333H252.068267c-59.733333 0-115.2-38.4-140.8-98.133333L13.134933 507.733333C-12.465067 452.266667 0.334933 384 43.0016 341.333333l358.4-379.733333c29.866667-29.866667 72.533333-46.933333 110.933333-46.933333s81.066667 17.066667 110.933334 46.933333L981.668267 341.333333c42.666667 42.666667 55.466667 110.933333 29.866666 166.4z m-93.866666-106.666666l-358.4-379.733334c-12.8-12.8-29.866667-21.333333-46.933334-21.333333s-34.133333 8.533333-46.933333 21.333333l-358.4 379.733334c-21.333333 17.066667-25.6 51.2-17.066667 76.8L192.334933 725.333333c12.8 25.6 34.133333 42.666667 64 42.666667h516.266667c25.6 0 51.2-17.066667 64-42.666667l98.133333-247.466666c8.533333-25.6 4.266667-59.733333-17.066666-76.8zM725.668267 512H299.0016c-25.6 0-42.666667-17.066667-42.666667-42.666667s17.066667-42.666667 42.666667-42.666666h426.666667c25.6 0 42.666667 17.066667 42.666666 42.666666s-17.066667 42.666667-42.666666 42.666667z"  horiz-adv-x="1024" />

    
    <glyph glyph-name="caidan-kezhao" unicode="&#58929;" d="M768 896H256C115.2 896 0 780.8 0 640v-512c0-140.8 115.2-256 256-256h512c140.8 0 256 115.2 256 256V640c0 140.8-115.2 256-256 256z m170.666667-768c0-93.866667-76.8-170.666667-170.666667-170.666667H256c-93.866667 0-170.666667 76.8-170.666667 170.666667V640c0 93.866667 76.8 170.666667 170.666667 170.666667h512c93.866667 0 170.666667-76.8 170.666667-170.666667v-512zM772.266667 456.533333c-21.333333 12.8-46.933333 4.266667-59.733334-17.066666-153.6-264.533333-439.466667-157.866667-452.266666-153.6-17.066667 12.8-42.666667 8.533333-55.466667-12.8-12.8-17.066667-8.533333-42.666667 8.533333-55.466667 17.066667-12.8 98.133333-38.4 196.266667-38.4 29.866667 0 59.733333 4.266667 93.866667 8.533333 123.733333 25.6 217.6 93.866667 285.866666 209.066667 12.8 21.333333 4.266667 46.933333-17.066666 59.733333zM362.666667 533.333333m-64 0a64 64 0 1 1 128 0 64 64 0 1 1-128 0Z"  horiz-adv-x="1024" />

    
    <glyph glyph-name="caidan-fengge" unicode="&#58930;" d="M938.666667 716.8c-17.066667 0-34.133333-4.266667-51.2-17.066667l-166.4-128-136.533334 273.066667C571.733333 878.933333 541.866667 896 512 896s-59.733333-17.066667-72.533333-46.933333L298.666667 576l-166.4 128c-12.8 8.533333-34.133333 12.8-46.933334 12.8C34.133333 716.8-12.8 669.866667 4.266667 610.133333l85.333333-337.066666C115.2 162.133333 213.333333 85.333333 328.533333 85.333333h366.933334c115.2 0 213.333333 76.8 243.2 187.733334l85.333333 337.066666c12.8 59.733333-34.133333 106.666667-85.333333 106.666667z m-85.333334-422.4c-17.066667-72.533333-85.333333-123.733333-157.866666-123.733333H328.533333c-76.8 0-140.8 51.2-157.866666 123.733333L85.333333 627.2l162.133334-123.733333 81.066666-64 46.933334 89.6L512 806.4l136.533333-268.8 46.933334-89.6L776.533333 512 938.666667 627.2l-85.333334-332.8zM810.666667-42.666667H213.333333c-25.6 0-42.666667-17.066667-42.666666-42.666666s17.066667-42.666667 42.666666-42.666667h597.333334c25.6 0 42.666667 17.066667 42.666666 42.666667s-17.066667 42.666667-42.666666 42.666666z"  horiz-adv-x="1026" />

    
    <glyph glyph-name="caidan-changjing" unicode="&#58931;" d="M499.2 810.666667c85.333333 0 162.133333-29.866667 226.133333-89.6 93.866667-85.333333 123.733333-221.866667 85.333334-341.333334-4.266667-8.533333-8.533333-21.333333-17.066667-34.133333L554.666667-12.8c-17.066667-25.6-42.666667-29.866667-55.466667-29.866667s-38.4 4.266667-55.466667 29.866667l-238.933333 358.4c-8.533333 12.8-12.8 25.6-17.066667 34.133333-38.4 119.466667-8.533333 256 85.333334 341.333334C332.8 780.8 413.866667 810.666667 499.2 810.666667m0 85.333333C396.8 896 294.4 857.6 213.333333 785.066667 98.133333 669.866667 55.466667 503.466667 106.666667 349.866667c4.266667-17.066667 17.066667-38.4 25.6-51.2l238.933333-358.4c29.866667-46.933333 76.8-68.266667 123.733333-68.266667s93.866667 21.333333 123.733334 68.266667l238.933333 358.4c12.8 17.066667 21.333333 34.133333 25.6 51.2 51.2 153.6 8.533333 320-106.666667 430.933333C704 857.6 601.6 896 499.2 896zM499.2 358.4c-72.533333 0-128 55.466667-128 128s55.466667 128 128 128 128-55.466667 128-128-59.733333-128-128-128z m0 170.666667c-25.6 0-42.666667-17.066667-42.666667-42.666667s17.066667-42.666667 42.666667-42.666667 42.666667 17.066667 42.666667 42.666667-21.333333 42.666667-42.666667 42.666667z"  horiz-adv-x="1024" />

    
    <glyph glyph-name="caidan-beixuan" unicode="&#58932;" d="M802.133333 810.666667c42.666667 0 81.066667-34.133333 85.333334-76.8L938.666667 145.066667c4.266667-46.933333-12.8-93.866667-42.666667-128-38.4-38.4-81.066667-59.733333-128-59.733334H298.666667c-46.933333 0-93.866667 21.333333-123.733334 55.466667-34.133333 34.133333-46.933333 81.066667-42.666666 128L179.2 733.866667c4.266667 42.666667 42.666667 76.8 85.333333 76.8h537.6m0 85.333333H264.533333c-89.6 0-162.133333-68.266667-170.666666-157.866667L42.666667 149.333333C29.866667 0 149.333333-128 298.666667-128h469.333333c149.333333 0 268.8 128 256 277.333333L972.8 738.133333c-8.533333 89.6-81.066667 157.866667-170.666667 157.866667zM533.333333 413.866667c-93.866667 0-170.666667 76.8-170.666666 170.666666 0 25.6 17.066667 42.666667 42.666666 42.666667s42.666667-17.066667 42.666667-42.666667c0-46.933333 38.4-85.333333 85.333333-85.333333s85.333333 38.4 85.333334 85.333333c0 25.6 17.066667 42.666667 42.666666 42.666667s42.666667-17.066667 42.666667-42.666667c0-93.866667-76.8-170.666667-170.666667-170.666666z"  horiz-adv-x="1024" />

    
    <glyph glyph-name="caidan-tongbu" unicode="&#58933;" d="M959.99999989 837.33333322c-33.59999967 0-56.00000011-22.40000044-56.00000011-56.00000011v-78.39999956C808.79999989 826.133333 668.80000011 893.33333333 512 893.33333333 232.00000044 893.33333333 8 669.3333328900001 8 389.33333333s224.00000044-504 504-504c173.60000044 0 330.39999956 89.59999978 425.60000044 235.19999967 16.80000033 27.99999956 11.20000022 61.60000022-16.80000033 78.40000055-27.99999956 16.80000033-61.60000022 11.20000022-78.40000055-16.80000033-72.80000044-112.00000022-195.99999989-179.19999956-330.39999956-179.19999956-218.40000033 0-391.99999978 173.60000044-391.99999978 391.99999978s173.60000044 391.99999978 391.99999978 391.99999978c128.79999956 0 246.39999989-61.60000022 319.20000033-168.00000033H736.00000044c-33.59999967 0-56.00000011-22.40000044-56.00000011-55.99999912s22.40000044-56.00000011 56.00000011-56.00000011h167.99999934c61.60000022 0 112.00000022 50.4 112.00000022 111.99999923V781.33333311c0 33.59999967-22.40000044 56.00000011-56.00000011 56.00000011z"  horiz-adv-x="1024" />

    
    <glyph glyph-name="shanchu1" unicode="&#58934;" d="M972.8 742.4H51.2c-30.72 0-51.2-20.48-51.2-51.2s20.48-51.2 51.2-51.2h56.32l81.92-634.88c15.36-76.8 81.92-133.12 153.6-133.12h332.8c76.8 0 143.36 56.32 153.6 133.12L916.48 640H972.8c30.72 0 51.2 20.48 51.2 51.2s-20.48 51.2-51.2 51.2z m-240.64-721.92c-5.12-25.6-25.6-46.08-51.2-46.08H343.04c-25.6 0-46.08 20.48-51.2 40.96L209.92 640h599.04l-76.8-619.52zM307.2 793.6h409.6c30.72 0 51.2 20.48 51.2 51.2s-20.48 51.2-51.2 51.2H307.2c-30.72 0-51.2-20.48-51.2-51.2s20.48-51.2 51.2-51.2zM619.52 107.52h5.12c25.6 0 46.08 20.48 51.2 46.08l30.72 256c5.12 25.6-15.36 51.2-46.08 56.32-30.72 5.12-51.2-15.36-56.32-46.08l-30.72-256c0-25.6 20.48-51.2 46.08-56.32z"  horiz-adv-x="1024" />

    
    <glyph glyph-name="kongzhitiao-xiayiye" unicode="&#58936;" d="M292.571429-128c21.942857 0 36.571429 7.314286 51.2 21.942857l424.228571 409.6c21.942857 21.942857 36.571429 51.2 36.571429 80.457143s-14.628571 58.514286-36.571429 80.457143L343.771429 874.057143C314.514286 903.314286 270.628571 903.314286 241.371429 874.057143c-29.257143-29.257143-29.257143-73.142857 0-102.4L643.657143 384 241.371429-3.657143c-29.257143-29.257143-29.257143-73.142857 0-102.4 14.628571-14.628571 29.257143-21.942857 51.2-21.942857z"  horiz-adv-x="1024" />

    
    <glyph glyph-name="kongzhitiao-shangyiye" unicode="&#58937;" d="M731.428571-128c-21.942857 0-36.571429 7.314286-51.2 21.942857L256 303.542857C234.057143 325.485714 219.428571 354.742857 219.428571 384s14.628571 58.514286 36.571429 80.457143L680.228571 874.057143c29.257143 29.257143 73.142857 29.257143 102.4 0 29.257143-29.257143 29.257143-73.142857 0-102.4L380.342857 384l402.285714-387.657143c29.257143-29.257143 29.257143-73.142857 0-102.4-14.628571-14.628571-29.257143-21.942857-51.2-21.942857z"  horiz-adv-x="1024" />

    
    <glyph glyph-name="tongyong-qianjin" unicode="&#58938;" d="M745.244444 384c0 14.222222-5.688889 28.444444-17.066666 39.822222l-150.755556 150.755556c-11.377778 11.377778-28.444444 11.377778-39.822222 0s-11.377778-28.444444 0-39.822222l122.311111-122.311112h-398.222222c-17.066667 0-28.444444-11.377778-28.444445-28.444444s11.377778-28.444444 28.444445-28.444444h398.222222l-122.311111-122.311112c-11.377778-11.377778-11.377778-28.444444 0-39.822222 5.688889-5.688889 14.222222-8.533333 19.911111-8.533333s14.222222 2.844444 19.911111 8.533333l150.755556 150.755556c11.377778 11.377778 17.066667 25.6 17.066666 39.822222zM512 896C230.4 896 0 665.6 0 384s230.4-512 512-512 512 230.4 512 512S793.6 896 512 896z m0-967.111111C261.688889-71.111111 56.888889 133.688889 56.888889 384S261.688889 839.111111 512 839.111111s455.111111-204.8 455.111111-455.111111-204.8-455.111111-455.111111-455.111111z"  horiz-adv-x="1024" />

    
    <glyph glyph-name="tongyong-fanhui" unicode="&#58939;" d="M762.311111 412.444444h-398.222222l122.311111 122.311112c11.377778 11.377778 11.377778 28.444444 0 39.822222s-28.444444 11.377778-39.822222 0l-150.755556-150.755556c-11.377778-11.377778-17.066667-25.6-17.066666-39.822222 0-14.222222 5.688889-28.444444 17.066666-39.822222l150.755556-150.755556c5.688889-5.688889 14.222222-8.533333 19.911111-8.533333s14.222222 2.844444 19.911111 8.533333c11.377778 11.377778 11.377778 28.444444 0 39.822222L364.088889 355.555556h398.222222c17.066667 0 28.444444 11.377778 28.444445 28.444444s-11.377778 28.444444-28.444445 28.444444zM512 896C230.4 896 0 665.6 0 384s230.4-512 512-512 512 230.4 512 512S793.6 896 512 896z m0-967.111111C261.688889-71.111111 56.888889 133.688889 56.888889 384S261.688889 839.111111 512 839.111111s455.111111-204.8 455.111111-455.111111-204.8-455.111111-455.111111-455.111111z"  horiz-adv-x="1024" />

    
    <glyph glyph-name="sousuo1" unicode="&#58941;" d="M1010.036364-48.872727l-186.181819 186.181818c65.163636 79.127273 107.054545 181.527273 107.054546 293.236364 0 256-209.454545 465.454545-465.454546 465.454545S0 686.545455 0 430.545455s209.454545-465.454545 465.454545-465.454546c111.709091 0 214.109091 37.236364 293.236364 107.054546l186.181818-186.181819c9.309091-9.309091 23.272727-13.963636 32.581818-13.963636s23.272727 4.654545 32.581819 13.963636c18.618182 18.618182 18.618182 46.545455 0 65.163637zM93.090909 430.545455c0 204.8 167.563636 372.363636 372.363636 372.363636s372.363636-167.563636 372.363637-372.363636-167.563636-372.363636-372.363637-372.363637-372.363636 167.563636-372.363636 372.363637z"  horiz-adv-x="1024" />

    
    <glyph glyph-name="fenxiang" unicode="&#58942;" d="M804.571429 164.571429c-36.571429 0-73.142857-14.628571-102.4-43.885715L424.228571 288.914286c7.314286 14.628571 14.628571 36.571429 14.628572 58.514285 0 29.257143-7.314286 51.2-14.628572 73.142858l219.428572 160.914285c29.257143-29.257143 73.142857-51.2 124.342857-51.2C870.4 530.285714 950.857143 610.742857 950.857143 713.142857S870.4 896 768 896 585.142857 815.542857 585.142857 713.142857c0-29.257143 7.314286-51.2 14.628572-73.142857l-219.428572-160.914286c-29.257143 29.257143-73.142857 51.2-124.342857 51.2C153.6 530.285714 73.142857 449.828571 73.142857 347.428571S153.6 164.571429 256 164.571429c51.2 0 102.4 21.942857 131.657143 58.514285l277.942857-168.228571c-7.314286-7.314286-7.314286-21.942857-7.314286-36.571429 0-80.457143 65.828571-146.285714 146.285715-146.285714s146.285714 65.828571 146.285714 146.285714-65.828571 146.285714-146.285714 146.285715z"  horiz-adv-x="1024" />

    
    <glyph glyph-name="danyinhao" unicode="&#58943;" d="M477.866667 851.2v-183.466667c0-25.6-21.333333-44.8-44.8-44.8-89.6 0-138.666667-91.733333-145.066667-270.933333h145.066667c25.6 0 44.8-19.2 44.8-44.8v-388.266667c0-25.6-21.333333-44.8-44.8-44.8H44.8C21.333333-128 0-108.8 0-83.2V305.066667c0 85.333333 8.533333 166.4 25.6 234.666666C42.666667 612.266667 70.4 676.266667 106.666667 727.466667c36.266667 53.333333 83.2 96 136.533333 123.733333C298.666667 881.066667 362.666667 896 433.066667 896c23.466667 0 44.8-19.2 44.8-44.8z m586.666666-230.4c25.6 0 44.8 19.2 44.8 44.8V851.2C1109.333333 876.8 1088 896 1064.533333 896c-70.4 0-134.4-14.933333-187.733333-44.8-53.333333-29.866667-100.266667-70.4-136.533333-123.733333-36.266667-51.2-64-115.2-81.066667-185.6-17.066667-70.4-25.6-149.333333-25.6-234.666667v-388.266667c0-25.6 21.333333-44.8 44.8-44.8h386.133333c25.6 0 44.8 19.2 44.8 44.8V305.066667c0 25.6-21.333333 44.8-44.8 44.8h-142.933333c6.4 181.333333 53.333333 270.933333 142.933333 270.933333z m0 0"  horiz-adv-x="1109" />

    
    <glyph glyph-name="datu-fanhui" unicode="&#58944;" d="M950.857143 457.142857H219.428571l314.514286 314.514286c29.257143 29.257143 29.257143 73.142857 0 102.4s-73.142857 29.257143-102.4 0L43.885714 486.4C14.628571 457.142857 0 420.571429 0 384c0-36.571429 14.628571-73.142857 43.885714-102.4l387.657143-387.657143c14.628571-14.628571 29.257143-21.942857 51.2-21.942857s36.571429 7.314286 51.2 21.942857c29.257143 29.257143 29.257143 73.142857 0 102.4L219.428571 310.857143h731.428572c43.885714 0 73.142857 29.257143 73.142857 73.142857s-29.257143 73.142857-73.142857 73.142857z"  horiz-adv-x="1024" />

    
    <glyph glyph-name="caidan-beixuan1" unicode="&#58946;" d="M772.39999967 44.93333299999995h-323.39999967c-79.80000033 0-151.2 58.79999967-163.8 134.40000066L171.8 771.53333366c-4.20000033 20.99999967-20.99999967 33.59999967-42.00000033 33.59999967H50.00000033c-25.2 0-42.00000033 16.80000033-42.00000033 42.00000033s16.80000033 42.00000033 42.00000033 41.99999934h79.79999934c58.79999967 0 113.4-42.00000033 121.80000066-100.8l25.2-134.39999967H890c37.8 0 75.6-16.80000033 100.8-50.4 25.2-29.40000033 33.59999967-71.39999967 20.99999967-109.19999967L932.00000033 170.93333299999995c-16.80000033-71.39999967-83.99999967-126-159.60000066-126zM297.8 569.93333366l71.39999967-369.60000033c8.39999967-37.8 42.00000033-67.20000033 84.00000066-67.20000033h323.39999967c37.8 0 71.39999967 25.2 79.80000033 63L932.00000033 515.33333333c4.20000033 12.6 0 25.2-8.40000066 37.8-8.39999967 8.39999967-20.99999967 16.80000033-33.59999967 16.80000033H297.8zM449-51.66666667000004m-63 0a63 63 0 1 1 126 0 63 63 0 1 1-126 0ZM759.79999967-51.66666667000004m-63 0a63 63 0 1 1 126 0 63 63 0 1 1-126 0Z"  horiz-adv-x="1025" />

    
    <glyph glyph-name="guanbi" unicode="&#58947;" d="M607.76 389.33333333l388.08 388.08c25.2 25.2 25.2 70.56 0 95.76s-70.56 25.2-95.76 0L512 485.09333333 123.92 873.17333333C98.72 898.37333333 53.36 898.37333333 28.16 873.17333333s-25.2-70.56 0-95.76L416.24 389.33333333 28.16 1.2533333300000322c-25.2-25.2-25.2-70.56 0-95.76s70.56-25.2 95.76 0l388.08 388.08 388.08-388.08c25.2-25.2 70.56-25.2 95.76 0s25.2 70.56 0 95.76L607.76 389.33333333z"  horiz-adv-x="1024" />

    
    <glyph glyph-name="caidanxiangqing" unicode="&#58948;" d="M0 896v-146.285714h1170.285714V896H0z m0-585.142857h1170.285714V457.142857H0v-146.285714z m0-438.857143h1170.285714v146.285714H0v-146.285714z"  horiz-adv-x="1170" />

    
    <glyph glyph-name="shouyeshezhi" unicode="&#58949;" d="M1090.228856 493.532338c-5.094527 30.567164-25.472637 50.945274-45.850747 50.945274h-5.094527c-76.41791 0-142.646766 61.134328-142.646766 142.646766 0 25.472637 10.189055 50.945274 10.189055 56.039801 10.189055 25.472637 5.094527 61.134328-20.37811 76.417911L753.99005 896c-10.189055-5.094527-20.378109 0-30.567164 0-20.378109 0-35.661692-10.189055-50.945274-20.378109-15.283582-15.283582-66.228856-61.134328-112.079602-61.134329-40.756219 0-96.79602 45.850746-112.079602 61.134329-10.189055 10.189055-25.472637 20.378109-45.850746 20.378109-10.189055 0-20.378109 0-25.472637-5.094527L234.348259 814.487562c-25.472637-20.378109-35.661692-50.945274-20.37811-76.41791 0 0 10.189055-30.567164 10.189055-56.039801C224.159204 605.61194 163.024876 539.383085 81.512438 539.383085c-20.378109 0-40.756219-20.378109-45.850746-50.945274 0 0-10.189055-61.134328-10.189055-106.985075 0-45.850746 10.189055-101.890547 10.189055-106.985074 5.094527-30.567164 25.472637-50.945274 45.850746-50.945274h5.094527c76.41791 0 142.646766-61.134328 142.646766-142.646766 0-25.472637-10.189055-50.945274-10.189054-56.039801-10.189055-25.472637-5.094527-61.134328 20.378109-76.417911l132.457712-76.41791c5.094527 10.189055 15.283582 5.094527 20.378109 5.094527 20.378109 0 40.756219 10.189055 50.945274 20.37811 15.283582 15.283582 71.323383 66.228856 112.079602 66.228856 45.850746 0 96.79602-45.850746 112.079602-66.228856 10.189055-15.283582 30.567164-20.378109 50.945273-20.37811 10.189055 0 15.283582 0 25.472637 5.094528l137.552239 76.41791c25.472637 15.283582 35.661692 50.945274 20.378109 76.417911 0 0-10.189055 30.567164-10.189054 56.039801 0 76.41791 61.134328 142.646766 142.646766 142.646766h5.094527c20.378109 0 40.756219 20.378109 45.850746 50.945273 0 0 10.189055 61.134328 10.189055 106.985075 5.094527 40.756219-5.094527 96.79602-5.094527 101.890547zM560.39801 182.766169c-117.174129 0-203.781095 91.701493-203.781095 203.781095 0 117.174129 91.701493 203.781095 203.781095 203.781094 117.174129 0 203.781095-91.701493 203.781094-203.781094 0-117.174129-86.606965-203.781095-203.781094-203.781095z"  horiz-adv-x="1120" />

    
    <glyph glyph-name="caidan1" unicode="&#58950;" d="M0 896v-102.4h1228.8V896H0z m0-563.2h1228.8V435.2H0v-102.4z m0-460.8h1228.8v102.4H0v-102.4z"  horiz-adv-x="1228" />

    
    <glyph glyph-name="fanye" unicode="&#58951;" d="M844.8-128c-15.36 0-25.6 5.12-35.84 15.36l-435.2 435.2c-15.36 15.36-25.6 40.96-25.6 61.44s10.24 46.08 25.6 61.44L808.96 880.64c20.48 20.48 51.2 20.48 71.68 0s20.48-51.2 0-71.68L455.68 384l424.96-424.96c20.48-20.48 20.48-51.2 0-71.68-10.24-10.24-20.48-15.36-35.84-15.36zM179.2-128c-30.72 0-51.2 20.48-51.2 51.2V844.8c0 30.72 20.48 51.2 51.2 51.2s51.2-20.48 51.2-51.2v-921.6c0-30.72-20.48-51.2-51.2-51.2z"  horiz-adv-x="1024" />

    
    <glyph glyph-name="fanye1" unicode="&#58952;" d="M179.2-128c-15.36 0-25.6 5.12-35.84 15.36-20.48 20.48-20.48 51.2 0 71.68L568.32 384 143.36 808.96C122.88 829.44 122.88 860.16 143.36 880.64s51.2 20.48 71.68 0l435.2-435.2c15.36-15.36 25.6-40.96 25.6-61.44s-10.24-46.08-25.6-61.44l-435.2-435.2c-10.24-10.24-20.48-15.36-35.84-15.36zM844.8-128c-30.72 0-51.2 20.48-51.2 51.2V844.8c0 30.72 20.48 51.2 51.2 51.2s51.2-20.48 51.2-51.2v-921.6c0-30.72-20.48-51.2-51.2-51.2z"  horiz-adv-x="1024" />

    
    <glyph glyph-name="yinhao" unicode="&#58953;" d="M483.65000032 845.99999967v-184.79999967c0-25.2-16.80000033-42.00000033-42.00000032-42.00000033-83.99999967 0-134.39999967-92.40000033-142.80000033-268.79999934h142.80000033c25.2 0 42.00000033-16.80000033 42.00000032-42.00000033v-378c0-25.2-16.80000033-42.00000033-42.00000032-42.00000033H55.25000032c-25.2-8.39999967-42.00000033 8.39999967-42.00000032 33.60000066V308.4c0 83.99999967 8.39999967 159.59999967 25.2 235.19999967 16.80000033 67.20000033 42.00000033 126 83.99999967 176.4 33.59999967 50.4 83.99999967 92.40000033 134.40000065 126C307.25000032 871.19999967 366.05 888 441.65 888c25.2 0 42.00000033-16.80000033 42.00000032-42.00000033z m579.6-226.8c25.2 0 42.00000033 16.80000033 41.99999935 42.00000033V845.99999967c0 25.2-16.80000033 42.00000033-41.99999935 42.00000033-67.20000033 0-134.39999967-16.80000033-184.80000065-42.00000033-58.79999967-33.59999967-100.8-75.6-134.39999967-126-42.00000033-50.4-67.20000033-109.19999967-83.99999968-184.79999967-16.80000033-67.20000033-25.2-142.80000033-25.2-226.8v-378c0-25.2 16.80000033-42.00000033 41.99999935-42.00000033h378c25.2 0 42.00000033 16.80000033 42.00000033 42.00000033V308.4c0 25.2-16.80000033 42.00000033-42.00000033 42.00000033h-142.79999935c16.80000033 176.4 58.79999967 268.80000033 151.2 268.79999934z m0 0"  horiz-adv-x="1109" />

    
    <glyph glyph-name="yinhao1" unicode="&#58955;" d="M629.60000033-77.99999966999997V106.79999999999995c0 25.2 16.80000033 42.00000033 41.99999934 42.00000033 83.99999967 0 134.39999967 92.40000033 142.80000033 268.79999934H671.59999967c-25.2 0-42.00000033 16.80000033-41.99999934 42.00000033V845.99999967c0 25.2 16.80000033 42.00000033 41.99999934 42.00000033h378c33.59999967 0 50.4-16.80000033 50.4-42.00000033V467.99999967c0-83.99999967-8.39999967-159.59999967-25.2-235.19999967-16.80000033-67.20000033-42.00000033-134.39999967-75.6-184.79999967-33.59999967-50.4-83.99999967-92.40000033-134.39999967-126-58.79999967-25.2-117.60000033-42.00000033-193.20000033-42.00000033-25.2 0-42.00000033 16.80000033-41.99999934 42.00000033zM50.00000033 148.80000033c-25.2 0-42.00000033-16.80000033-42.00000033-42.00000033v-184.79999967c0-25.2 16.80000033-42.00000033 42.00000033-42.00000033 67.20000033 0 134.39999967 16.80000033 184.79999967 42.00000033 50.4 25.2 100.8 67.20000033 134.39999967 126 33.59999967 50.4 58.79999967 109.19999967 75.6 184.79999967 25.2 67.20000033 33.59999967 142.80000033 33.60000066 226.8V845.99999967c0 25.2-16.80000033 42.00000033-42.00000033 42.00000033H50.00000033C24.80000033 888 8 871.19999967 8 845.99999967V467.99999967c0-25.2 16.80000033-42.00000033 42.00000033-41.99999934h142.79999934C184.4 241.19999967 142.39999967 148.80000033 50.00000033 148.80000033z m0 0"  horiz-adv-x="1109" />

    


  </font>
</defs>
</svg>
